<svg xmlns="http://www.w3.org/2000/svg" fill="none" viewBox="0 0 24 24" id="facebookstory"><path fill="#1876f2" d="M4 1.25C2.48122 1.25 1.25 2.48122 1.25 4V17C1.25 18.5188 2.48122 19.75 4 19.75H6.59861L8.37596 22.416C8.51506 22.6247 8.74924 22.75 9 22.75H10.5C10.9142 22.75 11.25 22.4142 11.25 22V4C11.25 2.48122 10.0188 1.25 8.5 1.25H4zM20 1.25C21.5188 1.25 22.75 2.48122 22.75 4V17C22.75 18.5188 21.5188 19.75 20 19.75H17.4014L15.624 22.416C15.4849 22.6247 15.2508 22.75 15 22.75H13.5C13.0858 22.75 12.75 22.4142 12.75 22V4C12.75 2.48122 13.9812 1.25 15.5 1.25H20z" class="color5e94ff svgShape"></path></svg>